<?xml version="1.0" encoding="utf-8"?>
<!-- Generator: Adobe Illustrator 22.0.0, SVG Export Plug-In . SVG Version: 6.00 Build 0)  -->
<svg version="1.1" xmlns="http://www.w3.org/2000/svg" xmlns:xlink="http://www.w3.org/1999/xlink" x="0px" y="0px"
	 viewBox="0 0 32 32" style="enable-background:new 0 0 32 32;" xml:space="preserve">
<style type="text/css">
	.st0{display:none;}
	.st1{display:inline;}
	.st2{fill:#CDF6F9;}
	.st3{fill:#FFFFFF;}
	.st4{fill:#1A83A8;}
</style>
<g id="Grid" class="st0">
</g>
<g id="Warranty">
</g>
<g id="Wallet">
</g>
<g id="Shopping_Bag">
</g>
<g id="Price_Tag">
</g>
<g id="Package">
</g>
<g id="Chat_Bubble">
</g>
<g id="Credit_Card">
</g>
<g id="List">
</g>
<g id="Money">
</g>
<g id="Profit">
</g>
<g id="Loss">
</g>
<g id="Clothes">
</g>
<g id="Voucher">
</g>
<g id="Bill">
</g>
<g id="Tax_1_">
</g>
<g id="Calendar">
</g>
<g id="Discount">
</g>
<g id="Ecommerce">
</g>
<g id="Shop">
</g>
<g id="QR_Code">
	<path class="st2" d="M25.5,8v6H18V6.5h6C24.828,6.5,25.5,7.172,25.5,8z"/>
	<path class="st2" d="M14,6.5V14H6.5V8c0-0.828,0.672-1.5,1.5-1.5H14z"/>
	<path class="st2" d="M14,18v7.5H8c-0.828,0-1.5-0.672-1.5-1.5v-6H14z"/>
	<path class="st2" d="M18,18v7.5h6c0.828,0,1.5-0.672,1.5-1.5v-6H18z"/>
	<path class="st4" d="M2,7.9c0.497,0,0.9-0.403,0.9-0.9V3.417C2.9,3.132,3.132,2.9,3.417,2.9H7c0.497,0,0.9-0.403,0.9-0.9
		S7.497,1.1,7,1.1H3.417C2.14,1.1,1.1,2.14,1.1,3.417V7C1.1,7.497,1.503,7.9,2,7.9z"/>
	<path class="st4" d="M7,29.1H3.417c-0.285,0-0.517-0.231-0.517-0.517V25c0-0.497-0.403-0.9-0.9-0.9S1.1,24.503,1.1,25v3.583
		c0,1.277,1.04,2.317,2.317,2.317H7c0.497,0,0.9-0.403,0.9-0.9S7.497,29.1,7,29.1z"/>
	<path class="st4" d="M28.583,1.1H25c-0.497,0-0.9,0.403-0.9,0.9s0.403,0.9,0.9,0.9h3.583c0.285,0,0.517,0.231,0.517,0.517V7
		c0,0.497,0.403,0.9,0.9,0.9s0.9-0.403,0.9-0.9V3.417C30.9,2.14,29.86,1.1,28.583,1.1z"/>
	<path class="st4" d="M30,24.1c-0.497,0-0.9,0.403-0.9,0.9v3.583c0,0.285-0.231,0.517-0.517,0.517H25c-0.497,0-0.9,0.403-0.9,0.9
		s0.403,0.9,0.9,0.9h3.583c1.277,0,2.317-1.04,2.317-2.317V25C30.9,24.503,30.497,24.1,30,24.1z"/>
	<path class="st4" d="M22.671,18c0-0.497-0.403-0.9-0.9-0.9H18c-0.497,0-0.9,0.403-0.9,0.9v7.5c0,0.497,0.403,0.9,0.9,0.9
		s0.9-0.403,0.9-0.9v-6.6h2.87C22.268,18.9,22.671,18.497,22.671,18z"/>
	<path class="st4" d="M26.4,24v-6c0-0.497-0.403-0.9-0.9-0.9s-0.9,0.403-0.9,0.9v6c0,0.331-0.269,0.6-0.6,0.6h-2.25
		c-0.497,0-0.9,0.403-0.9,0.9s0.403,0.9,0.9,0.9H24C25.323,26.4,26.4,25.323,26.4,24z"/>
	<path class="st4" d="M18,14.9h7.5c0.497,0,0.9-0.403,0.9-0.9V8c0-1.323-1.077-2.4-2.4-2.4h-6c-0.497,0-0.9,0.403-0.9,0.9V14
		C17.1,14.497,17.503,14.9,18,14.9z M18.9,7.4H24c0.331,0,0.6,0.269,0.6,0.6v5.1H18.9V7.4z"/>
	<path class="st4" d="M14,5.6H8C6.677,5.6,5.6,6.677,5.6,8v6c0,0.497,0.403,0.9,0.9,0.9H14c0.497,0,0.9-0.403,0.9-0.9V6.5
		C14.9,6.003,14.497,5.6,14,5.6z M13.1,13.1H7.4V8c0-0.331,0.269-0.6,0.6-0.6h5.1V13.1z"/>
	<path class="st4" d="M9.531,11.25h1.438c0.155,0,0.281-0.126,0.281-0.281V9.531c0-0.155-0.126-0.281-0.281-0.281H9.531
		c-0.155,0-0.281,0.126-0.281,0.281v1.438C9.25,11.124,9.376,11.25,9.531,11.25z"/>
	<path class="st4" d="M22.469,9.25h-1.438c-0.155,0-0.281,0.126-0.281,0.281v1.438c0,0.155,0.126,0.281,0.281,0.281h1.438
		c0.155,0,0.281-0.126,0.281-0.281V9.531C22.75,9.376,22.624,9.25,22.469,9.25z"/>
	<path class="st4" d="M9.531,22.75h1.438c0.155,0,0.281-0.126,0.281-0.281v-1.438c0-0.155-0.126-0.281-0.281-0.281H9.531
		c-0.155,0-0.281,0.126-0.281,0.281v1.438C9.25,22.624,9.376,22.75,9.531,22.75z"/>
	<path class="st4" d="M22.469,22.75c0.155,0,0.281-0.126,0.281-0.281v-1.438c0-0.155-0.126-0.281-0.281-0.281h-1.438
		c-0.155,0-0.281,0.126-0.281,0.281v1.438c0,0.155,0.126,0.281,0.281,0.281H22.469z"/>
	<path class="st4" d="M14,17.1H6.5c-0.497,0-0.9,0.403-0.9,0.9v6c0,1.323,1.077,2.4,2.4,2.4h6c0.497,0,0.9-0.403,0.9-0.9V18
		C14.9,17.503,14.497,17.1,14,17.1z M13.1,24.6H8c-0.331,0-0.6-0.269-0.6-0.6v-5.1H13.1V24.6z"/>
</g>
<g id="Gift">
</g>
<g id="Shopping_Basket">
</g>
<g id="Megaphone">
</g>
<g id="Transaction">
</g>
<g id="Flash_Sale">
</g>
</svg>
